<?xml version="1.0" encoding="UTF-8"?>
<!DOCTYPE svg PUBLIC "-//W3C//DTD SVG 1.1//EN" "http://www.w3.org/Graphics/SVG/1.1/DTD/svg11.dtd">
<!-- Creator: CorelDRAW X7 -->
<svg xmlns="http://www.w3.org/2000/svg" xml:space="preserve" width="215.9mm" height="279.4mm" version="1.1" style="shape-rendering:geometricPrecision; text-rendering:geometricPrecision; image-rendering:optimizeQuality; fill-rule:evenodd; clip-rule:evenodd"
viewBox="0 0 21590 27940"
 xmlns:xlink="http://www.w3.org/1999/xlink">
 <defs>
  <style type="text/css">
   <![CDATA[
    .str1 {stroke:#373435;stroke-width:7.62}
    .str2 {stroke:#373435;stroke-width:44.37}
    .str0 {stroke:#FCA412;stroke-width:155.28}
    .fil3 {fill:none}
    .fil0 {fill:#FEFEFE}
    .fil1 {fill:#96989A}
    .fil5 {fill:#373435}
    .fil7 {fill:#370097}
    .fil6 {fill:#FCA412}
    .fil2 {fill:#007B3E}
    .fil4 {fill:#373435;fill-rule:nonzero}
   ]]>
  </style>
 </defs>
 <g id="Layer_x0020_1">
  <metadata id="CorelCorpID_0Corel-Layer"/>
  <path class="fil0" d="M5623 3717l-160 5181c0,0 512,831 607,1567 96,735 -64,4509 -64,4509l0 2366 224 991 -32 2015 448 1087 512 768 959 416 1375 511 576 160 1567 448 1215 -288 959 -224 1184 -448 1279 -703 1055 -1759 -32 -1759 192 -1055 0 -4189 -192 -3070 704 -896 32 -5660c0,0 -12472,96 -12408,32z"/>
  <path class="fil1" d="M18903 15278l-245 1279c0,0 74,288 38,439 -37,151 -97,264 -138,300 -40,37 -192,-231 -581,-157 -389,74 -415,443 -634,385 -219,-57 -257,-231 -257,-326 0,-95 94,-208 94,-208l-171 -204 183 -225c0,0 -76,-438 -137,-628 -62,-190 -330,-645 -330,-645 0,0 -18,-4026 -8,-4248 11,-222 -107,-935 517,-1579 623,-645 1002,-692 1003,-766l10 -974 560 740 -407 1046c0,0 217,130 357,673 140,542 -62,1125 -159,981 -96,-144 -420,-474 -619,-443 -199,32 -464,199 -354,778 111,578 863,2312 982,2533l296 1249z"/>
  <path class="fil0" d="M17759 9771l-169 -205 -236 216 -118 -45c-20,-7 -224,285 -333,616 -109,330 -129,1038 -65,1534 65,497 135,904 114,924l-105 101 31 205 -58 86 -11 412 265 654c0,0 -31,155 -31,264 0,109 74,216 74,216l-68 226 -212 -392 7 654c0,0 174,260 261,557 87,297 196,720 184,701 -13,-18 208,-144 485,-203 277,-59 556,52 514,0l-372 -462 -301 245c0,0 -112,116 -156,16 -43,-101 -331,-854 -331,-855 -1,0 -38,-68 157,-292 194,-225 297,-203 370,-203 73,0 -170,94 -256,244 -86,150 -113,252 -90,320l217 667c7,26 23,57 53,35l149 -143 -131 -247c-14,-28 2,-45 7,-50l122 -106 209 -319c16,-14 49,-18 67,-3l287 252c17,21 32,24 19,71l-65 174c-7,27 -9,44 1,62 85,153 166,283 252,435l-10 -422c0,0 4,-156 113,-125 109,31 78,206 64,286l-102 564 38 58 183 -1210 -276 -1249c0,0 -872,-1802 -996,-2661 -124,-860 332,-1034 297,-1089l-124 -198 -113 -32 -15 -55 204 -229z"/>
  <path class="fil1" d="M4590 15348l245 1279c0,0 -74,289 -38,440 36,151 97,264 138,300 40,36 191,-231 581,-157 389,74 415,442 634,385 219,-57 257,-231 257,-326 0,-95 -94,-208 -94,-208l171 -204 -183 -225c0,0 75,-438 137,-628 62,-191 329,-645 329,-645 0,0 19,-4027 9,-4249 -11,-222 107,-934 -517,-1579 -623,-644 -1002,-691 -1003,-766l-10 -973 -561 740 408 1046c0,0 -217,130 -357,672 -140,543 62,1126 158,982 97,-144 421,-475 620,-443 199,31 464,199 354,777 -111,579 -863,2313 -982,2533l-296 1249z"/>
  <path class="fil0" d="M5772 9637c-18,20 -641,-375 -688,-428 -96,-109 -120,-222 -120,-222 0,0 266,120 503,258 237,138 397,289 397,289l-92 103z"/>
  <polygon class="fil2" points="5414,8508 5415,3493 18189,3493 18189,8446 17867,8592 17867,3826 5748,3826 5748,8690 "/>
  <path class="fil3 str0" d="M16555 18043c-1,2195 -2194,3876 -4821,3876 -2626,0 -4792,-1678 -4798,-3861l0 -12660 9621 0 -2 12645z"/>
  <g>
   <path class="fil4" d="M11723 21827l0 -89 0 0 233 -5 229 -14 227 -24 223 -33 219 -42 216 -50 211 -59 207 -66 201 -75 197 -82 191 -89 185 -96 179 -104 172 -109 166 -116 159 -121 151 -128 144 -132 136 -138 128 -143 119 -147 110 -152 102 -156 91 -159 82 -163 72 -167 62 -169 51 -173 41 -174 29 -177 18 -179 6 -181 88 0 -6 186 -18 185 -30 183 -42 180 -52 177 -64 175 -74 171 -84 168 -95 163 -103 160 -113 155 -122 151 -131 146 -139 141 -147 136 -154 130 -162 124 -169 118 -176 111 -183 105 -188 98 -194 91 -200 83 -205 76 -210 68 -215 60 -219 51 -223 42 -227 34 -230 24 -234 15 -236 5 0 0zm-4617 -3745l88 0 0 0 8 191 19 188 30 185 41 182 51 178 62 175 72 170 81 167 91 162 101 158 109 153 118 148 126 143 134 138 142 132 150 126 157 121 164 114 171 107 177 102 183 94 190 87 194 80 201 72 205 65 209 56 215 49 218 40 223 32 226 23 229 14 232 4 0 89 -236 -5 -233 -14 -229 -23 -226 -32 -222 -41 -218 -50 -213 -57 -209 -66 -204 -74 -198 -81 -193 -89 -186 -96 -181 -103 -174 -110 -167 -116 -161 -123 -153 -129 -145 -135 -137 -141 -129 -146 -121 -152 -112 -157 -103 -162 -93 -166 -84 -171 -74 -176 -63 -179 -53 -183 -42 -187 -31 -190 -20 -194 -7 -196 0 -1zm0 1l0 0 0 -1 0 1zm86 -12450l2 12449 -88 0 -3 -12449 44 -44 45 44zm-89 0l0 -44 44 0 -44 44zm9223 41l-9179 3 0 -88 9179 -4 44 45 -44 44zm0 -89l44 0 0 45 -44 -45zm-46 12530l1 -12485 89 0 -2 12485 -88 0z"/>
  </g>
  <path class="fil2" d="M16090 17924c0,1903 -1891,3538 -4376,3562 -2448,23 -4297,-1584 -4327,-3586l4 -11996 8700 1 -1 12019z"/>
  <path class="fil0 str1" d="M14788 17910c1,1037 -1010,1772 -2120,2054 -326,82 -660,125 -979,126 -1454,3 -3045,-885 -3064,-2339l-17 -10443 6177 -3 3 10605z"/>
  <path class="fil5" d="M14617 18095c-1,1017 -1382,1809 -2958,1824 -1635,16 -2844,-928 -2839,-1932l-1 -10456 531 1c59,1246 764,2441 2365,2552 1546,-28 2372,-1358 2417,-2552l487 0 -2 10563z"/>
  <path class="fil6" d="M14557 18052c-1,1006 -1349,1789 -2893,1804 -1602,16 -2791,-917 -2790,-1910l6 -9445 532 -169 -12 -41 -519 163 1 -141 489 -146 -10 -40 -477 144 0 -665 410 0c58,1233 824,2430 2417,2524 1538,-35 2432,-1343 2476,-2524l378 0 -3 653 -27 29 -417 -142 -10 38 449 157 1 121 -44 8 -445 -152 -15 48 510 170 -7 9516z"/>
  <path class="fil5 str2" d="M13921 7528c4,0 3,43 3,69 0,1251 -986,2271 -2193,2271 -1206,0 -2191,-1020 -2191,-2271l0 -71 4381 2z"/>
  <path class="fil1" d="M6018 17634c0,0 106,244 122,593 17,350 4,1143 4,1301 0,158 30,931 30,931 0,0 341,701 416,859 75,158 477,794 539,830l1262 733 1721 535c0,0 624,750 1699,716 1075,-33 1523,-768 1620,-799l1436 -458c0,0 550,-300 716,-366 167,-67 720,-410 720,-410 0,0 391,-584 594,-922 203,-339 433,-863 433,-863 0,0 -33,-1397 2,-1902 35,-505 181,-931 168,-918 -17,18 -77,47 -101,45l-7 -1c0,0 -85,201 -127,859 -41,658 -16,1875 -16,1875 0,0 -97,205 -227,485 -130,279 -278,483 -278,483l-87 -227 283 -311 -98 -233 257 -309 -193 -243 -1391 1449c0,0 -63,-65 -222,-106 -158,-41 -367,70 -300,70 67,0 227,-4 369,72 143,76 187,320 188,299 1,-21 50,-104 28,-221l-20 -37 1341 -1407 91 116 -720 841c0,0 -39,-38 -132,-25 -94,13 -104,96 -104,96 0,0 157,-38 199,62 41,100 -9,150 -9,150 0,0 -92,-75 -178,-53 -87,21 -133,108 -133,108 0,0 168,-71 218,38 50,108 -22,261 2,257 23,-4 91,-75 100,-142 8,-66 25,-83 25,-83l334 -330 62 207 -742 601c0,0 -16,-108 -42,-198 -25,-90 -137,-138 -137,-138 0,0 16,91 24,150 8,58 -12,170 -12,170l-77 -70 -102 -42c0,0 108,90 112,223 5,132 -78,227 -78,227 0,0 -69,62 -4,82 65,20 159,-21 212,-99 53,-78 114,-199 114,-199l730 -597 -345 622c-275,133 -490,245 -765,378 -35,21 -79,30 -88,1l-51 -462 -19 3 -142 587c-180,108 -372,197 -547,275l-4 -24 159 -472 -16 -12c0,0 -116,183 -208,316 -92,133 -282,311 -282,311l-485 156 125 -303c49,38 93,39 155,4l220 -101c0,0 44,-14 53,-64 8,-50 -16,-82 -16,-82l-95 -189c-45,-48 -62,-66 -174,-34l-80 32c0,0 -81,21 -46,86 35,66 170,-43 216,-8l23 17c16,34 119,133 -28,189l-153 81 -515 -661 48 -26 488 296 53 -19 -268 -366c0,0 340,-33 397,-46 58,-13 22,-151 -37,-127l-132 55 -149 9 282 -151 99 25c0,0 48,-84 130,-129 82,-46 216,-13 216,-13 0,0 168,-248 292,-320 124,-72 325,-51 325,-51 0,0 33,-94 100,-196 67,-103 315,-259 828,-1025 514,-766 603,-1899 602,-1939l-2 -761 262 -17c-1,-23 -4,-50 9,-99l-47 4 -224 9 3 -1674 -48 -86 -47 -81 8 2726c0,0 -61,459 -208,996 -147,537 -753,1754 -1932,2340 -1179,586 -1280,545 -1280,545l614 757 -175 422 -262 99c0,0 74,-243 24,-416 -49,-173 -474,-778 -474,-778l-304 50c0,0 -174,35 -240,180 -66,145 -73,467 104,499 176,31 272,-63 300,-126 27,-63 136,100 186,233 50,134 23,183 -67,267 -89,84 -326,-125 -326,-125 0,0 177,277 -22,423 -198,146 -363,-265 -363,-265 0,0 74,406 -146,487 -220,82 -400,-344 -400,-345 1,-2 -127,440 -401,361 -274,-79 -130,-463 -146,-479 -16,-16 -180,414 -404,262 -223,-151 63,-457 55,-469 -8,-11 -333,327 -428,112 -86,-195 126,-645 217,-378 52,155 351,55 401,-49 50,-104 31,-287 -45,-431 -75,-144 -300,-174 -403,-182 -102,-8 -151,30 -201,89 -50,58 -335,539 -369,622 -33,84 -78,152 -78,300 0,148 94,227 53,215l-256 -77 -177 -479 641 -773c0,0 -328,-10 -1352,-560 -1024,-549 -1589,-1354 -1895,-2248 -305,-893 -227,-1758 -227,-1776l4 -1959 -106 231 -4 1628 -226 0c7,42 2,66 -1,95l24 2 200 3c0,0 -22,1104 269,1868 292,763 731,1349 956,1532 225,183 296,285 313,335 17,50 47,156 47,156 0,0 186,-19 371,93 185,112 221,274 221,274l236 16 121 109 101 -38c75,-11 155,11 158,64l3 48c0,0 112,-37 179,13 67,50 56,171 26,212l-217 300 58 12 461 -310 57 3 -512 653c-28,37 -68,45 -99,28l-159 -89c0,0 -36,-60 -1,-113 35,-53 52,-71 118,-57l119 26c0,0 54,8 77,-35 22,-43 -6,-79 -20,-82l-118 -22 -119 -18c-90,-12 -155,190 -192,283 -2,32 0,52 19,77l281 163c35,9 63,2 77,-13l50 -52 135 350c0,0 -383,-22 -573,-229 -190,-208 -397,-540 -397,-540 0,0 37,186 69,274 33,87 126,261 111,257 -14,-3 -163,-43 -323,-100 -160,-57 -285,-141 -285,-141l-83 -333 -50 -50 29 -86 -40 -228c0,0 -80,222 -80,330 0,109 5,251 5,251l-847 -442c0,0 -166,-251 -224,-361 -57,-109 -132,-274 -128,-271l736 608c0,0 27,78 86,157 59,80 200,186 275,128 75,-59 -146,-32 -144,-221 1,-189 138,-288 86,-257l-143 88c0,0 -16,-29 -12,-152 5,-122 35,-185 35,-185 0,0 -88,-3 -139,171 -52,174 -32,207 -51,191l-704 -608 50 -186 309 258c0,0 10,116 52,186 41,69 109,119 116,103 8,-16 -87,-135 -30,-244 56,-108 219,-73 200,-86 -19,-12 -52,-80 -164,-76 -112,4 -150,80 -164,66l-583 -575 55 -180 460 470c-3,11 -27,91 18,203l22 -4c31,-46 19,-112 95,-156 36,-18 124,-40 177,0l26 -25c0,0 -69,-90 -172,-92 -102,-2 -132,37 -142,24l-682 -791 -12 -53 122 -111 1330 1415c-14,50 -81,152 10,307l40 42c0,0 -74,-278 118,-389 193,-111 393,-57 393,-57 0,0 -133,-151 -330,-86 -196,64 -194,123 -205,111l-1352 -1460 -241 265 273 330 -86 254 284 303 -70 255 -526 -960c0,0 -32,-1165 -12,-1457 21,-293 -14,-822 -55,-1049 -40,-226 -74,-316 -74,-316 -15,3 -84,-6 -134,-60l40 83z"/>
  <path class="fil1" d="M14542 21934c-95,0 -172,-77 -172,-172 0,-94 77,-171 172,-171 94,0 171,77 171,171 0,95 -77,172 -171,172z"/>
  <path class="fil1" d="M14388 21979c27,36 36,54 39,75 3,22 -15,91 -28,117 -13,26 -14,48 -44,45 -31,-3 -137,-183 -137,-183 0,0 -23,-34 -16,-45 7,-12 20,-35 62,-45 42,-10 53,-19 79,-10 26,9 45,46 45,46z"/>
  <path class="fil1" d="M14627 22047c71,-30 81,-33 104,-37 23,-5 23,-8 45,2 21,11 76,103 76,103 0,0 14,29 -4,49 -19,20 -281,104 -281,104 0,0 -52,25 -71,15 -19,-11 -23,-44 -22,-58 2,-15 21,-106 21,-106 0,0 18,-24 51,-42 34,-17 81,-30 81,-30z"/>
  <path class="fil1" d="M14794 21774c-1,-30 -15,-143 -15,-163 0,-21 2,-31 12,-39 11,-9 176,-94 176,-94 0,0 41,-19 52,-3 12,16 20,30 23,61 3,30 10,164 -3,270 -13,105 -43,196 -44,208 -2,11 -10,20 -25,20 -14,0 -124,-58 -135,-66 -12,-9 -38,-42 -42,-67 -4,-24 1,-127 1,-127z"/>
  <path class="fil1" d="M8963 21993c95,0 172,-77 172,-172 0,-94 -77,-171 -172,-171 -94,0 -171,77 -171,171 0,95 77,172 171,172z"/>
  <path class="fil1" d="M9117 22039c-27,36 -36,53 -39,75 -3,21 14,91 27,117 13,26 15,47 45,44 30,-2 137,-183 137,-183 0,0 23,-33 16,-45 -7,-11 -20,-35 -62,-45 -42,-10 -53,-18 -79,-10 -26,9 -45,47 -45,47z"/>
  <path class="fil1" d="M8878 22106c-71,-30 -81,-33 -104,-37 -23,-4 -23,-7 -45,3 -21,10 -76,102 -76,102 0,0 -15,29 4,49 19,21 281,104 281,104 0,0 52,25 71,15 19,-10 23,-43 21,-58 -1,-14 -20,-105 -20,-105 0,0 -18,-25 -52,-42 -33,-18 -80,-31 -80,-31z"/>
  <path class="fil1" d="M8710 21833c2,-30 16,-143 16,-163 0,-20 -3,-30 -13,-39 -10,-9 -175,-94 -175,-94 0,0 -41,-19 -52,-3 -12,16 -21,31 -23,61 -3,30 -11,165 2,270 13,106 44,197 45,208 2,12 10,20 25,20 14,0 124,-57 135,-66 12,-9 38,-42 42,-67 4,-24 -2,-127 -2,-127z"/>
  <path class="fil1" d="M9384 21955l-146 -41 10 -105c0,0 50,60 77,69 27,9 45,-23 45,-23l37 -32c0,0 -5,23 -5,50 0,27 -23,86 -18,82z"/>
  <path class="fil0" d="M11775 23986c563,35 1433,-560 1534,-769 101,-208 123,-319 41,-502 -82,-184 -316,-557 -316,-557 0,0 0,-19 -32,-38 -31,-19 -63,-6 -63,-6 0,0 -224,22 -294,76 -70,54 -149,285 -41,351 107,66 208,-3 221,-73 13,-69 -69,-139 -69,-139 0,0 145,-63 316,278 171,342 104,389 88,487 -15,98 -582,728 -1372,721 -791,-6 -1363,-442 -1433,-661 -70,-218 -5,-528 193,-699 192,-165 212,-126 212,-126 0,0 -146,142 -10,228 136,85 247,-19 219,-196 -29,-178 -130,-184 -193,-203 -64,-19 -215,-44 -269,-6 -54,38 -250,379 -275,424 -26,44 -165,329 -114,493 51,165 297,582 778,721 474,190 879,196 879,196z"/>
  <path class="fil1" d="M11714 22136c175,3 648,-31 648,-31 0,0 27,-15 47,4 20,20 14,38 14,38 0,0 -54,176 -57,213 -3,36 -43,204 -43,204 0,0 -3,43 -20,62 -16,20 -65,40 -65,40 0,0 -267,34 -478,37 -211,3 -527,-16 -507,-17 20,-2 -30,-7 -49,-17 -20,-10 -14,-56 -14,-56 0,0 -26,-204 -42,-270 -17,-66 -63,-178 -63,-178 0,0 -7,-19 7,-39 13,-20 26,-23 42,-23 17,0 233,26 301,29 46,5 279,4 279,4z"/>
  <path class="fil0" d="M11735 22286c131,2 423,-12 423,-12 0,0 45,-4 60,6 23,18 12,78 8,108 -3,19 -12,110 -35,128 -12,10 -34,11 -34,11 0,0 -261,32 -440,38 -74,2 -295,-9 -363,-15 -35,-4 -56,-192 -59,-225 0,0 -1,-28 9,-39 10,-10 49,-5 61,-5 12,0 110,0 161,2 35,3 209,3 209,3z"/>
  <polygon class="fil0" points="16777,20539 16841,20689 16320,21222 16326,21036 "/>
  <path class="fil1" d="M6571 7823c0,0 -326,125 -357,395 -30,271 188,536 294,776 106,241 79,653 74,678 -6,26 -5,59 -27,66 -23,8 -48,-31 -48,-31 0,0 -316,-380 -411,-444 -95,-63 -369,-276 -369,-276 0,0 28,-270 28,-396 0,-127 -63,-594 151,-752 213,-159 327,-143 382,-143 202,-11 283,127 283,127z"/>
  <path class="fil0" d="M6465 9451c-25,72 -253,-221 -332,-306 -79,-84 -332,-490 -302,-855 31,-364 210,-422 276,-454 67,-31 243,-56 260,-21 17,35 -71,62 -164,168 -94,107 -138,330 -59,504 79,175 191,383 248,535 76,161 73,429 73,429z"/>
  <path class="fil0" d="M4799 8602c0,0 235,126 685,363 451,236 745,640 745,640l-85 96c0,0 -241,-278 -572,-486 -331,-208 -465,-269 -680,-364l-93 -249z"/>
  <path class="fil0" d="M5623 9843l84 -112 -256 -169 -297 -185 88 114 144 106c0,0 -6,27 -35,27 -49,0 -123,6 -177,32 -85,43 -172,109 -151,151 22,43 131,-45 280,-45 150,0 320,81 320,81z"/>
  <path class="fil0" d="M5765 10076c0,0 -267,-288 -560,-194 -294,94 -362,246 -402,607 -40,362 49,581 89,585 40,5 165,-412 302,-594 137,-182 318,-136 407,-154l164 -250z"/>
  <path class="fil0" d="M5734 9842l169 -205 236 216 118 -45c20,-8 224,285 333,615 109,331 129,1038 65,1535 -65,497 -135,904 -115,924l106 101 -31 204 57 87 12 412 -265 653c0,0 31,156 31,265 0,109 -74,215 -74,215l68 227 212 -393 -7 655c0,0 -174,260 -261,556 -87,297 -196,721 -184,702 13,-19 -209,-145 -485,-204 -277,-58 -556,53 -514,0l372 -461 301 245c0,0 112,116 156,15 43,-101 331,-853 331,-854 1,0 38,-69 -157,-293 -194,-224 -297,-202 -370,-202 -73,0 169,94 256,244 86,149 113,251 90,320l-217 667c-7,26 -23,56 -53,35l-149 -144 131 -246c14,-28 -2,-45 -7,-50l-122 -106 -209 -319c-17,-14 -49,-18 -67,-3l-288 251c-16,22 -31,25 -18,72l65 173c6,28 8,44 -1,63 -85,152 -166,283 -252,435l10 -422c0,0 -4,-156 -113,-125 -109,31 -78,206 -64,285l102 564 -38 59 -183 -1210 276 -1249c0,0 872,-1802 996,-2661 124,-860 -332,-1035 -298,-1090l125 -198 113 -31 15 -56 -204 -228z"/>
  <polygon class="fil0" points="5087,16266 5609,15713 5423,15432 5287,15555 5359,15742 "/>
  <path class="fil0" d="M5570 16453c387,37 602,231 660,268 59,36 117,131 117,131l-109 110c0,0 -239,-295 -637,-329 -398,-34 -647,255 -679,249 -32,-7 -51,-161 103,-263 197,-190 545,-166 545,-166z"/>
  <path class="fil0" d="M5573 16766c255,-7 489,218 570,284 80,65 226,321 43,401 -182,81 -214,-92 -265,-150 -52,-59 -178,-282 -531,-310 -353,-28 -395,183 -431,183 -37,0 -32,-205 161,-312 201,-129 453,-96 453,-96z"/>
  <path class="fil1" d="M5316 14851c69,49 174,230 174,230 0,0 122,11 140,-3 17,-14 -18,-217 -32,-262 -13,-46 -55,-154 -87,-154 -31,0 -115,98 -140,94 -24,-3 -45,-157 -69,-167 -25,-11 -186,-21 -227,0 -42,21 -105,24 -91,101 14,77 28,129 59,119 32,-11 150,-7 199,10 49,18 74,32 74,32z"/>
  <path class="fil1" d="M5008 15249c39,31 108,91 119,108 10,18 3,28 -4,52 -7,25 -27,133 -48,140 -21,7 -112,-14 -154,-45 -42,-32 -119,-108 -108,-136 10,-28 59,-151 66,-168 7,-18 24,-52 49,-32 24,21 80,81 80,81z"/>
  <path class="fil0" d="M4977 15343c21,21 42,28 56,46 14,17 14,55 7,73 -7,17 -39,10 -63,-4 -25,-14 -88,-59 -88,-76 0,-18 -3,-74 25,-74 28,0 63,35 63,35z"/>
  <path class="fil1" d="M5197 14893c98,0 178,87 178,193 0,107 -80,194 -178,194 -98,0 -178,-87 -178,-194 0,-106 80,-193 178,-193z"/>
  <path class="fil0" d="M5171 14966c51,0 92,45 92,101 0,55 -41,101 -92,101 -52,0 -93,-46 -93,-101 0,-56 41,-101 93,-101z"/>
  <path class="fil1" d="M16922 7752c0,0 326,126 356,396 31,270 -187,535 -293,776 -106,240 -79,652 -74,677 6,26 4,59 27,67 23,8 48,-32 48,-32 0,0 316,-380 411,-443 95,-64 369,-276 369,-276 0,0 -28,-270 -28,-397 0,-127 63,-594 -151,-752 -214,-159 -327,-143 -382,-143 -202,-11 -283,127 -283,127z"/>
  <path class="fil0" d="M17028 9380c25,72 253,-221 332,-305 79,-85 332,-491 302,-855 -31,-365 -210,-423 -277,-454 -66,-31 -242,-56 -259,-22 -17,35 71,62 164,169 94,106 138,329 59,504 -79,174 -191,382 -248,534 -76,162 -73,429 -73,429z"/>
  <polygon class="fil0" points="18406,16195 17884,15642 18070,15362 18206,15484 18134,15671 "/>
  <path class="fil0" d="M17923 16383c-387,36 -602,231 -660,267 -59,37 -117,132 -117,132l109 109c0,0 239,-295 637,-329 398,-33 646,255 678,249 32,-6 52,-161 -102,-263 -197,-190 -545,-165 -545,-165z"/>
  <path class="fil1" d="M18177 14780c-70,49 -174,230 -174,230 0,0 -123,11 -140,-3 -17,-14 17,-217 31,-262 14,-45 56,-154 88,-154 31,0 115,98 139,95 25,-4 46,-158 70,-168 25,-11 185,-21 227,0 42,21 105,24 91,101 -14,77 -28,129 -59,119 -32,-10 -150,-7 -199,10 -49,18 -74,32 -74,32z"/>
  <path class="fil1" d="M18485 15178c-39,32 -109,91 -119,108 -11,18 -4,28 3,53 7,24 28,133 49,140 21,6 112,-14 154,-46 42,-31 119,-108 108,-136 -10,-28 -59,-150 -66,-168 -7,-17 -24,-52 -49,-31 -24,21 -80,80 -80,80z"/>
  <path class="fil0" d="M18516 15272c-21,21 -42,28 -56,46 -14,17 -14,56 -7,73 7,18 39,11 63,-3 25,-14 87,-60 87,-77 0,-18 4,-74 -24,-74 -28,0 -63,35 -63,35z"/>
  <path class="fil1" d="M18296 14822c-98,0 -178,87 -178,194 0,106 80,194 178,194 98,0 178,-88 178,-194 0,-107 -80,-194 -178,-194z"/>
  <path class="fil0" d="M18322 14895c-51,0 -92,46 -92,101 0,56 41,101 92,101 51,0 93,-45 93,-101 0,-55 -42,-101 -93,-101z"/>
  <polygon class="fil3 str1" points="16838,7480 16838,7474 "/>
  <path class="fil5" d="M8119 4395c77,0 128,12 154,37 27,24 40,71 40,140l0 345c0,69 -13,115 -40,140 -26,24 -77,37 -154,37l-111 0 0 -201 36 0 0 -311 -36 0 0 -187 111 0zm22 187l0 311 25 0c19,0 32,-3 39,-9 6,-7 9,-22 9,-47l0 -198c0,-25 -3,-41 -9,-47 -7,-7 -20,-10 -39,-10l-25 0zm-523 512l0 -201 26 0 42 -311 -30 0 0 -187 251 0 0 187 -31 0 40 311 28 0 0 201 -159 0 0 -201 32 0 -7 -69 -75 0 -8 69 32 0 0 201 -141 0zm127 -355l53 0 -25 -235 -28 235zm-385 -344c76,0 128,12 154,37 26,24 39,71 39,140l0 345c0,69 -13,115 -39,140 -26,24 -78,37 -154,37l-111 0 0 -201 36 0 0 -311 -36 0 0 -187 111 0zm22 187l0 311 25 0c19,0 32,-3 38,-9 7,-7 10,-22 10,-47l0 -198c0,-25 -3,-41 -10,-47 -6,-7 -19,-10 -38,-10l-25 0zm-381 512l0 -201 36 0 0 -311 -36 0 0 -187 170 0 0 187 -37 0 0 311 37 0 0 201 -170 0zm-239 89l-102 -246 91 -38 10 26c8,19 15,30 20,34 5,4 12,4 21,0 10,-4 15,-10 16,-18 1,-8 -2,-21 -9,-37 -12,-31 -37,-48 -74,-54 -11,-2 -19,-4 -25,-5 -47,-8 -80,-20 -98,-35 -17,-16 -35,-43 -52,-84l-33 -80c-14,-35 -18,-65 -11,-90 7,-26 23,-44 50,-55 16,-7 31,-10 45,-9 14,0 27,5 41,13l-12 -28 72 -29 95 229 -80 33 -8 -19c-7,-18 -14,-30 -19,-34 -6,-4 -13,-4 -22,-1 -9,4 -14,10 -15,18 -1,8 2,21 9,38 7,17 33,29 78,35 0,0 1,0 1,0 51,7 87,19 108,35 20,16 38,43 54,80l45 108c16,40 21,73 14,99 -7,25 -25,45 -56,57 -15,7 -29,9 -42,8 -13,-1 -26,-6 -38,-15l12 28 -86 36zm-134 298l-186 -75 14 -34 -288 -117 -14 33 -173 -70 45 -110c26,-63 52,-102 79,-118 27,-15 64,-14 109,5l96 39c28,11 46,25 56,42 9,16 11,40 5,69 10,-24 23,-38 38,-42 15,-4 40,1 76,15l40 17c8,3 14,4 20,4 5,-1 8,-3 10,-8 2,-5 1,-10 -3,-14 -5,-5 -17,-11 -36,-19l-19 -7 15 -36c19,7 36,13 52,19 15,6 30,12 44,17 57,24 96,47 115,69 20,23 24,48 12,76 -9,24 -25,38 -47,42 -23,5 -51,0 -85,-14 -18,-7 -41,-17 -71,-31 -30,-13 -52,-23 -64,-28 -21,-8 -37,-11 -47,-9 -11,3 -19,11 -25,26l-7 18 104 42 11 -29 186 76 -62 152zm-337 -344l-27 -11c-17,-7 -28,-9 -35,-6 -6,2 -12,11 -18,26l-8 18 105 43 7 -18c6,-15 8,-25 5,-32 -3,-6 -12,-13 -29,-20zm338 653l-201 0 0 -36 -311 0 0 36 -186 0 0 -287 286 0 0 98 -100 0 0 56 124 0 0 -88 78 0 0 88 109 0 0 -56 -86 0 0 -98 287 0 0 287zm-11 312l-512 62 0 32 -187 0 0 -154 187 0 0 28 348 -36 -348 -42 0 24 -187 0 0 -138 187 0 0 31 512 67 0 126zm2 353l-200 0 0 -36 -311 0 0 36 -187 0 0 -170 187 0 0 37 311 0 0 -37 200 0 0 170zm-6 447l-200 0 0 -36 -312 0 0 36 -186 0 0 -157 477 -98 -291 0 0 31 -186 0 0 -142 186 0 0 36 512 0 0 106 -544 114 344 0 0 -32 200 0 0 142zm-154 130c57,0 98,10 123,29 26,20 38,51 38,95 0,44 -12,75 -37,94 -24,19 -66,29 -124,29l-357 0 0 32 -187 0 0 -147 187 0 0 17 257 0c24,0 40,-2 49,-6 8,-5 12,-13 12,-24 0,-12 -4,-20 -14,-25 -10,-5 -25,-8 -47,-8l-257 0 0 22 -187 0 0 -140 187 0 0 32 357 0zm10369 -252l201 -1 0 27 311 42 0 -31 187 0 0 251 -187 0 0 -31 -311 41 0 28 -200 0 0 -160 200 0 0 32 69 -6 0 -75 -69 -9 0 33 -201 0 0 -141zm703 -98l-201 0 0 -36 -311 0 0 37 -187 0 0 -170 187 0 0 36 311 0 0 -37 201 0 0 170zm-711 -622l200 0 0 37 312 0 0 -37 186 0 0 158 -477 97 291 0 0 -31 186 0 0 143 -186 0 0 -37 -512 0 0 -106 544 -113 -344 0 0 32 -200 0 0 -143zm1 -430l201 0 0 37 311 0 0 -37 187 0 0 119c0,68 -10,114 -29,139 -20,25 -54,37 -103,37l-104 0c-29,0 -52,-6 -67,-18 -14,-12 -25,-33 -31,-62 0,26 -6,44 -19,53 -12,10 -38,14 -76,14l-44 0c-8,0 -14,2 -19,4 -5,3 -7,6 -7,11 0,6 3,10 9,12 5,2 19,4 40,4l20 0 0 38c-20,1 -39,2 -55,2 -17,1 -33,1 -48,1 -62,0 -106,-7 -133,-20 -26,-14 -39,-36 -39,-67 0,-25 9,-44 28,-56 18,-13 46,-19 83,-19 19,0 45,0 78,2 33,1 56,1 70,1 22,0 38,-3 47,-9 8,-6 13,-17 13,-33l0 -19 -112 0 0 31 -201 0 0 -165zm191 -77c-61,9 -106,6 -135,-11 -29,-16 -47,-48 -55,-95 -7,-47 0,-83 23,-108 23,-25 65,-42 125,-51l366 -58c61,-9 106,-6 135,11 29,16 47,48 55,95 7,48 -1,84 -23,108 -23,25 -65,42 -125,51l-366 58zm-333 -411l126 -156 29 23 195 -242 -28 -23 117 -145 223 180 -180 223 -76 -61 63 -78 -43 -35 -84 103 69 55 -49 60 -68 -55 -64 79 34 27 -126 157 -138 -112zm-180 -47l43 -196 36 8 67 -304 -35 -8 40 -182 166 37 -40 182 -36 -8 -67 304 35 8 -43 196 -166 -37zm-311 -10l4 -200 37 1 6 -312 -36 0 3 -187 178 4 -3 186 -45 -1 -6 312 56 1 2 -119 98 2 -7 319 -287 -6zm-364 1l0 -201 26 0 42 -311 -30 0 0 -187 251 0 0 187 -31 0 40 311 28 0 0 201 -159 0 0 -201 32 0 -7 -68 -75 0 -8 68 32 0 0 201 -141 0zm-194 -446c0,-29 -3,-48 -7,-58 -5,-10 -14,-15 -26,-15 -12,0 -21,6 -26,16 -6,11 -8,30 -8,57l0 180c0,27 2,46 8,57 5,10 14,16 26,16 12,0 21,-6 26,-16 4,-10 7,-29 7,-57l0 -56 104 0 0 158c0,58 -11,101 -33,129 -22,28 -55,42 -101,42 -48,0 -82,-13 -103,-40 -21,-26 -31,-70 -31,-131l0 -370c0,-62 7,-105 22,-132 15,-26 39,-39 73,-39 15,0 28,3 40,11 12,7 23,18 34,33l0 -38 96 0 0 290 -101 0 0 -37zm321 91l53 0 -25 -235 -28 235zm1146 709l178 -28c28,-5 47,-10 56,-17 9,-7 12,-17 10,-30 -2,-13 -9,-21 -20,-25 -11,-4 -30,-4 -57,0l-178 28c-27,4 -45,10 -55,17 -9,7 -13,18 -11,31 2,13 8,21 19,25 11,4 31,3 58,-1zm167 382l29 0c18,0 29,-3 34,-7 5,-5 7,-15 7,-32l0 -19 -113 0 0 19c0,16 3,26 8,31 5,5 16,8 35,8zm-81 1085l0 52 235 -25 -235 -27zm-2600 -1811l0 -200 27 0 42 -312 -31 0 0 -186 251 0 0 186 -31 0 40 312 28 0 0 200 -159 0 0 -200 32 0 -6 -69 -75 0 -9 69 33 0 0 200 -142 0zm-55 -161c0,63 -9,106 -28,131 -19,25 -51,37 -96,37 -46,0 -78,-12 -98,-37 -18,-25 -28,-68 -28,-131l0 -162 103 0 0 78c0,21 2,35 5,42 3,6 9,10 18,10 10,0 16,-4 20,-11 4,-7 6,-22 6,-42l0 -266 -37 0 0 -186 172 0 0 186 -37 0 0 351zm-626 164l0 -201 27 0 42 -311 -31 0 0 -187 251 0 0 187 -31 0 40 311 28 0 0 201 -159 0 0 -201 32 0 -6 -68 -75 0 -9 68 33 0 0 201 -142 0zm-324 -5l0 -201 37 0 0 -312 -37 0 0 -186 119 0c68,0 114,10 139,29 25,19 37,54 37,103l0 121c0,26 -5,45 -16,58 -10,14 -27,23 -52,28 23,4 40,13 51,26 11,13 17,31 17,54l0 138c0,48 -13,84 -39,107 -26,23 -66,35 -121,35l-135 0zm-802 5l0 -201 36 0 0 -311 -36 0 0 -186 287 0 0 286 -98 0 0 -100 -56 0 0 124 88 0 0 78 -88 0 0 109 56 0 0 -86 98 0 0 287 -287 0zm-287 -698c77,0 129,12 155,36 26,25 39,71 39,141l0 344c0,69 -13,116 -39,140 -26,25 -78,37 -155,37l-111 0 0 -201 37 0 0 -311 -37 0 0 -186 111 0zm23 186l0 311 25 0c19,0 32,-3 38,-9 6,-6 10,-22 10,-47l0 -198c0,-25 -4,-40 -10,-47 -6,-7 -19,-10 -38,-10l-25 0zm-981 511l0 -200 26 0 42 -311 -30 0 0 -187 250 0 0 187 -30 0 40 311 28 0 0 200 -160 0 0 -200 33 0 -7 -69 -75 0 -9 69 33 0 0 200 -141 0zm-501 0l0 -200 36 0 0 -311 -36 0 0 -187 179 0 38 385 47 -385 181 0 0 187 -36 0 0 311 36 0 0 200 -160 0 0 -200 27 0 0 -391 -79 591 -44 0 -77 -591 0 391 28 0 0 200 -140 0zm-79 -169c0,62 -10,106 -31,132 -21,26 -55,39 -103,39 -48,0 -82,-13 -103,-39 -21,-26 -31,-70 -31,-132l0 -370c0,-62 10,-105 31,-132 21,-26 55,-39 103,-39 48,0 82,13 103,40 21,26 31,70 31,131l0 370zm-698 165l0 -201 36 0 0 -311 -36 0 0 -187 157 0 98 477 0 -290 -31 0 0 -187 142 0 0 187 -36 0 0 512 -106 0 -113 -545 0 344 31 0 0 201 -142 0zm-84 -165c0,62 -10,106 -31,132 -21,26 -55,39 -103,39 -48,0 -82,-13 -103,-39 -21,-26 -31,-70 -31,-132l0 -370c0,-62 10,-105 31,-132 21,-26 55,-39 103,-39 48,0 82,13 103,40 21,26 31,70 31,131l0 370zm-592 165l0 -201 37 0 0 -311 -43 0 0 119 -65 0 0 -306 313 0 0 306 -66 0 0 -119 -41 0 0 311 36 0 0 201 -171 0zm-139 -155c0,57 -10,98 -29,123 -20,26 -51,38 -95,38 -44,0 -75,-12 -94,-37 -19,-25 -29,-66 -29,-124l0 -357 -32 0 0 -187 147 0 0 187 -17 0 0 257c0,24 2,40 7,48 4,9 12,13 23,13 12,0 20,-5 25,-14 5,-10 8,-25 8,-47l0 -257 -22 0 0 -187 140 0 0 187 -32 0 0 357zm-624 155l0 -201 26 0 43 -311 -31 0 0 -187 251 0 0 187 -31 0 40 311 28 0 0 201 -159 0 0 -201 32 0 -7 -69 -75 0 -8 69 32 0 0 201 -141 0zm127 -355l53 0 -25 -235 -28 235zm1130 88l0 -180c0,-28 -3,-47 -8,-57 -5,-10 -15,-15 -28,-15 -13,0 -23,5 -28,16 -6,10 -9,29 -9,56l0 180c0,27 3,46 9,57 5,11 15,16 28,16 13,0 23,-5 28,-15 5,-10 8,-30 8,-58zm782 0l0 -180c0,-28 -3,-47 -8,-57 -6,-10 -15,-15 -28,-15 -13,0 -23,5 -29,16 -5,10 -8,29 -8,56l0 180c0,27 3,46 8,57 6,11 16,16 29,16 13,0 22,-5 28,-15 5,-10 8,-30 8,-58zm805 -83l52 0 -25 -235 -27 235zm2112 -91l0 -30c0,-18 -3,-30 -8,-35 -5,-5 -15,-7 -31,-7l-19 0 0 114 19 0c16,0 26,-2 31,-7 5,-5 8,-17 8,-35zm0 199l0 -30c0,-18 -3,-30 -8,-34 -5,-5 -15,-8 -31,-8l-19 0 0 113 19 0c16,0 26,-2 31,-7 5,-5 8,-16 8,-34zm260 -108l52 0 -25 -235 -27 235zm681 -2l52 0 -25 -235 -27 235z"/>
  <path class="fil0" d="M8396 8020l-354 -6 -3 191c-1,72 13,126 42,162 29,36 73,55 132,56 59,1 103,-16 133,-52 29,-35 45,-88 46,-160l4 -191zm127 -149l-6 360c-2,113 -30,201 -84,262 -53,62 -127,92 -222,91 -97,-2 -172,-34 -223,-97 -51,-63 -76,-152 -74,-267l3 -207 -343 -6 3 -153 946 17zm-113 1236c2,-90 -32,-164 -101,-222 -69,-59 -160,-89 -273,-91 -110,-2 -199,25 -269,81 -69,57 -105,130 -107,221 -1,91 32,165 100,223 68,58 158,88 270,90 111,2 202,-25 272,-81 70,-56 107,-130 108,-221zm125 2c-1,64 -12,123 -34,177 -21,55 -51,103 -90,144 -49,51 -105,89 -169,114 -65,24 -136,36 -216,35 -73,-2 -140,-15 -203,-41 -63,-25 -117,-61 -162,-106 -43,-45 -76,-95 -97,-152 -21,-56 -31,-119 -30,-188 1,-66 14,-129 40,-187 24,-59 59,-110 104,-152 48,-44 103,-77 163,-99 60,-21 128,-31 202,-30 75,2 142,14 202,38 59,24 113,60 160,108 43,43 75,94 97,153 23,60 34,121 33,186zm-167 756l-291 -5 -4 230c-1,65 11,114 35,147 25,33 62,51 112,52 44,0 79,-16 104,-50 26,-33 39,-82 40,-144l4 -230zm127 -149l-6 370c-2,118 -25,207 -69,267 -43,59 -106,88 -188,87 -59,-1 -107,-18 -145,-51 -38,-33 -60,-77 -66,-132l-4 -1c-6,58 -23,99 -52,124 -29,24 -75,36 -139,35l-52 -1c-76,-2 -131,1 -162,9 -32,7 -57,20 -76,38l3 -179c17,-10 37,-17 59,-21 22,-5 52,-6 90,-6 0,0 9,1 27,2 18,0 36,1 54,1 73,1 121,-8 144,-27 22,-20 34,-59 35,-117l5 -256 -407 -8 3 -151 946 17zm-7 1744l-2 158 -820 -14 -8 472 -127 -2 11 -631 946 17zm-159 1135l-470 -187 -6 361 475 -169 1 -5zm148 -87l-3 181 -953 365 3 -168 204 -73 8 -454 -201 -82 3 -166 939 397zm-121 1591l-291 -5 -4 230c-1,65 11,114 35,147 25,34 62,51 112,52 45,1 79,-16 105,-49 25,-34 38,-82 39,-145l4 -230zm127 -149l-6 370c-2,118 -25,207 -68,267 -44,59 -107,89 -189,87 -59,-1 -107,-18 -145,-51 -38,-32 -60,-76 -66,-131l-4 -2c-6,58 -23,99 -52,124 -29,24 -75,36 -139,35l-51 -1c-77,-1 -132,2 -163,9 -32,7 -57,20 -76,39l3 -180c17,-10 37,-17 59,-21 22,-4 52,-6 90,-5 0,0 9,0 27,1 18,1 36,1 54,1 73,2 121,-7 144,-27 22,-20 34,-59 35,-117l5 -256 -406 -7 2 -151 946 16zm-4 913l0 618 -125 0 0 -467 -257 0 0 405 -126 0 0 -405 -312 0 0 474 -126 0 0 -625 946 0zm-145 1222l-472 -178 0 360 472 -176 0 -6zm147 -90l0 182 -946 381 0 -167 203 -78 0 -453 -203 -79 0 -166 946 380zm3 652l0 158 -820 0 0 472 -127 0 0 -630 947 0zm10 753l3 158 -946 17 -3 -159 946 -16zm-6 374l51 728 -148 11 -711 -538 41 590 -126 8 -53 -761 153 -10 706 536 -38 -555 125 -9zm65 1080l-501 64 170 319 334 -378 -3 -5zm88 -148l85 160 -656 781 -79 -148 143 -164 -213 -400 -216 26 -78 -147 1014 -108zm635 1207l-121 -117c30,-53 40,-105 32,-158 -8,-53 -34,-101 -79,-144 -68,-66 -148,-95 -238,-86 -90,8 -174,52 -251,132 -77,79 -117,163 -121,253 -5,90 27,168 96,234 50,48 103,74 162,79 58,4 112,-14 161,-55l122 118c-85,65 -176,91 -273,81 -96,-10 -188,-57 -273,-140 -103,-99 -154,-212 -153,-339 1,-127 55,-245 160,-354 48,-50 102,-89 161,-117 59,-28 120,-44 183,-48 61,-3 121,7 181,32 59,25 115,62 167,112 80,78 128,161 142,250 15,89 -5,178 -58,267zm319 -178l135 82 -487 811 -136 -82 488 -811zm595 406c-84,-34 -165,-29 -244,15 -79,43 -140,118 -182,222 -42,102 -48,196 -21,281 28,84 84,144 168,178 84,34 165,30 244,-13 78,-43 138,-116 180,-220 42,-103 49,-197 22,-283 -27,-86 -83,-146 -167,-180zm47 -115c58,23 110,55 153,94 43,39 77,85 102,136 30,64 45,130 45,199 0,69 -15,140 -44,214 -28,67 -64,126 -111,175 -46,50 -99,87 -158,113 -56,24 -115,36 -175,36 -61,0 -123,-14 -187,-40 -62,-24 -115,-59 -161,-103 -46,-45 -80,-95 -104,-152 -24,-61 -35,-124 -34,-188 2,-63 17,-130 45,-199 28,-70 64,-128 107,-175 44,-47 97,-84 158,-111 56,-24 115,-36 178,-36 64,0 125,12 186,37zm408 181l190 30 357 814 4 -3 117 -735 150 23 -148 935 -192 -30 -355 -825 -8 0 -114 749 -149 -24 148 -934zm1846 179l74 345 187 -40c70,-15 120,-40 149,-77 28,-36 37,-83 24,-141 -12,-58 -39,-97 -80,-118 -41,-21 -97,-24 -167,-9l-187 40zm-173 -91l352 -75c111,-23 202,-16 274,22 73,38 119,104 138,196 21,96 6,176 -44,240 -49,64 -130,108 -243,132l-202 43 71 336 -150 32 -196 -926zm774 -180l145 -62 320 755 435 -185 50 117 -581 246 -369 -871zm549 -241l507 -354 72 103 -383 268 147 210 332 -233 72 103 -331 233 178 255 389 -272 72 104 -512 358 -543 -775zm613 -388l119 -152 885 83 0 -6 -587 -458 93 -120 746 583 -119 152 -894 -89 -3 7 599 463 -93 119 -746 -582zm742 -941l394 316 112 -343 -504 22 -2 5zm-167 41l56 -173 1017 -70 -51 159 -217 11 -140 431 168 137 -51 158 -782 -653zm215 -1416l694 0 0 -168c0,-121 -29,-212 -87,-275 -58,-62 -143,-93 -256,-93 -115,0 -203,31 -262,93 -59,62 -89,154 -89,275l0 168zm-125 154l0 -327c0,-175 40,-307 121,-398 81,-90 199,-135 356,-135 150,0 265,45 347,135 81,90 122,218 122,384l0 341 -946 0zm-1 -1062l0 -618 126 0 0 467 256 0 0 -405 126 0 0 405 312 0 0 -474 126 0 0 625 -946 0zm15 -908l0 -158 820 0 0 -473 127 0 0 631 -947 0zm-18 -1627l0 -153 383 0 0 -448 -383 0 0 -152 946 0 0 152 -437 0 0 448 437 0 0 153 -946 0zm91 -1411c0,90 34,164 105,221 70,57 161,86 274,86 110,0 199,-29 268,-87 68,-57 102,-131 102,-222 0,-91 -34,-164 -103,-221 -69,-57 -160,-85 -272,-85 -111,0 -201,28 -271,86 -69,57 -103,131 -103,222zm-125 0c0,-63 10,-123 30,-178 20,-54 49,-103 88,-145 48,-51 104,-90 167,-116 64,-26 136,-39 215,-39 73,0 141,12 204,37 63,24 118,59 164,104 44,43 77,93 99,149 23,56 34,119 34,188 0,66 -12,129 -36,188 -24,59 -58,110 -102,153 -48,45 -102,79 -162,102 -59,22 -127,33 -201,33 -75,0 -142,-11 -202,-34 -60,-23 -114,-58 -163,-105 -43,-42 -76,-93 -100,-152 -23,-58 -35,-120 -35,-185zm33 -632l0 -197 786 -307 2 -6 -788 -309 0 -197 946 0 0 141 -781 -9 0 8 781 297 0 142 -781 299 0 9 781 -11 0 140 -946 0zm506 -1383l314 0 0 -252c0,-71 -13,-123 -38,-157 -26,-35 -65,-52 -118,-52 -53,0 -93,17 -119,52 -26,35 -39,87 -39,157l0 252zm-384 0l265 0 0 -220c0,-66 -11,-113 -32,-142 -21,-29 -55,-43 -101,-43 -45,0 -78,16 -100,49 -21,34 -32,84 -32,152l0 204zm-123 147l0 -370c0,-110 19,-192 59,-246 39,-55 97,-82 176,-82 47,0 89,13 123,39 34,26 59,64 74,112l4 0c9,-69 35,-122 77,-160 42,-38 97,-56 165,-56 92,0 160,31 203,94 43,63 65,162 65,296l0 373 -946 0zm120 -1133l291 0 0 -230c0,-65 -13,-114 -38,-147 -25,-33 -63,-50 -113,-50 -44,0 -79,17 -103,52 -25,34 -37,82 -37,145l0 230zm-125 151l0 -370c0,-118 22,-208 64,-268 42,-60 105,-91 187,-91 59,0 108,16 146,49 38,32 61,75 68,130l4 1c5,-57 21,-99 50,-124 28,-25 75,-38 138,-38l52 0c77,0 131,-4 162,-11 32,-8 57,-21 76,-40l0 179c-17,10 -37,18 -59,22 -22,5 -52,7 -90,7 0,0 -9,0 -27,0 -18,-1 -36,-1 -54,-1 -73,0 -121,10 -143,30 -22,20 -34,59 -34,117l0 257 407 0 0 151 -947 0zm8 -996l0 -618 125 0 0 467 257 0 0 -405 126 0 0 405 312 0 0 -474 126 0 0 625 -946 0z"/>
  <path class="fil3 str1" d="M10408 11548l-330 1087 125 46 323 -1030c0,0 3,-43 -21,-82 -23,-39 -87,-41 -87,-41l-10 20z"/>
  <path class="fil3 str1" d="M9781 10542l-508 770 -91 -84 603 -948c0,0 14,22 36,65 22,44 26,73 26,73l-66 124z"/>
  <path class="fil3 str1" d="M12947 11647l313 1033 112 -49 -342 -1134 -47 25c0,0 -41,44 -45,71 -5,27 9,54 9,54z"/>
  <path class="fil0" d="M13823 7613c-1,22 -2,44 -2,68 0,1152 -938,2091 -2088,2091 -1149,0 -2087,-939 -2087,-2091 0,-24 0,-49 0,-68 1050,2 4177,0 4177,0z"/>
  <path class="fil3 str1" d="M13592 10484l62 -176 562 902 -98 83c0,0 -528,-803 -526,-809z"/>
  <path class="fil7" d="M11864 9498c-430,0 -782,-352 -782,-783 0,-430 352,-782 782,-782 431,0 783,352 783,782 0,431 -352,783 -783,783z"/>
  <polygon class="fil0" points="11868,8423 11942,8535 12074,8508 12047,8640 12160,8715 12047,8789 12074,8921 11942,8894 11868,9007 11793,8894 11661,8921 11688,8789 11576,8715 11688,8640 11661,8508 11793,8535 "/>
  <path class="fil5" d="M11203 7957c0,0 -365,136 -396,754 -31,619 587,856 587,856 0,0 -300,-69 -462,-246 -162,-176 -217,-263 -247,-291 -31,-27 -69,-98 -69,-98 0,0 6,-18 -36,-42 -41,-24 -146,-29 -146,-29 0,0 57,-36 105,-30 47,6 143,35 143,0 0,-36 -30,-48 -84,-66 -53,-18 -77,-48 -125,-54 -48,-6 -162,0 -162,0 0,0 54,-6 102,-24 48,-18 58,-17 95,-17 37,1 55,17 96,17 42,0 67,14 68,-32 2,-45 -7,-36 -68,-46 -60,-10 -90,-16 -120,-40 -30,-24 -125,-38 -167,-26 -42,12 -102,0 -102,0 0,0 107,-2 172,-38 65,-36 112,-33 142,-20 30,12 51,34 93,28 42,-6 82,-18 84,-53 2,-36 -14,-71 -80,-70 -65,0 -141,4 -171,-26 -30,-30 -66,-36 -108,-30 -42,6 -157,-4 -157,-4 0,0 115,-2 163,-26 48,-24 66,-36 102,-24 36,12 72,4 112,6 39,1 122,-34 122,-34l87 -1c0,0 61,-79 -70,-103 -130,-23 -126,24 -185,18 -60,-6 -90,-39 -126,-39 -36,-1 -138,-9 -138,-9 0,0 192,-36 240,-65 48,-30 77,-37 125,-37 48,1 105,30 165,30 61,0 144,-33 177,-59 35,-24 239,-30 239,-30z"/>
  <path class="fil0" d="M18694 8531c0,0 -235,126 -686,363 -450,236 -744,640 -744,640l85 96c0,0 241,-277 572,-486 331,-208 465,-269 679,-363l94 -250z"/>
  <path class="fil0" d="M17721 9566c18,21 641,-374 688,-427 96,-110 120,-223 120,-223 0,0 -266,120 -503,258 -237,138 -397,289 -397,289l92 103z"/>
  <path class="fil0" d="M17870 9773l-84 -113 256 -169 297 -185 -88 114 -144 106c0,0 6,28 35,28 48,0 123,5 176,32 86,42 173,108 152,151 -22,42 -131,-46 -281,-46 -149,0 -319,82 -319,82z"/>
  <path class="fil0" d="M17728 10005c0,0 267,-288 560,-194 294,95 362,246 402,608 40,361 -49,580 -89,585 -40,4 -165,-413 -302,-595 -137,-182 -318,-136 -407,-154l-164 -250z"/>
  <path class="fil0" d="M14547 21856c-46,0 -84,-38 -84,-84 0,-47 38,-85 84,-85 47,0 85,38 85,85 0,46 -38,84 -85,84z"/>
  <path class="fil0" d="M14848 21760c-2,-37 -12,-113 -8,-123 5,-10 38,-34 57,-44 18,-10 57,-33 66,-24 9,8 17,34 16,72 -2,38 -10,220 -28,253 -17,33 -23,42 -46,32 -23,-10 -49,-18 -52,-35 -2,-17 -5,-131 -5,-131z"/>
  <path class="fil0" d="M8957 21916c47,0 85,-38 85,-85 0,-47 -38,-85 -85,-85 -46,0 -84,38 -84,85 0,47 38,85 84,85z"/>
  <path class="fil0" d="M8657 21819c2,-36 12,-113 7,-123 -4,-10 -37,-33 -56,-43 -19,-10 -58,-34 -66,-25 -9,9 -17,35 -16,72 1,38 10,220 27,253 18,33 23,42 46,32 24,-10 50,-17 52,-35 3,-17 6,-131 6,-131z"/>
  <path class="fil1" d="M6011 13272c102,-230 219,-692 252,-823 5,-18 12,-124 94,-45l137 130 -71 377c-3,16 -16,54 10,86l74 73c10,13 33,41 45,68 8,37 -47,133 -17,169l84 101c12,21 32,47 14,98l-393 936c0,0 77,131 85,224 7,94 -28,254 -56,226l-176 -172c0,0 -20,-331 -135,-305 -93,20 -113,-45 -152,-39 -58,8 -168,36 -208,-45 -40,-80 54,-235 96,-308 42,-73 178,-356 215,-458 36,-103 102,-293 102,-293z"/>
  <path class="fil0" d="M5934 13694l203 -587 187 -652 110 98c0,0 -50,310 -131,581 -80,270 -166,550 -166,550 0,0 -23,-20 -85,-20 -68,0 -118,30 -118,30z"/>
  <path class="fil0" d="M6386 13038l117 119c0,0 -117,344 -138,424 -22,80 -135,356 -149,400 -15,44 -50,124 -72,123 -22,-2 -43,-150 -144,-174 -101,-24 -212,76 -193,35l92 -197c0,0 84,-29 165,30 82,58 93,114 108,161 14,47 45,-72 37,-131 -7,-58 -27,-132 -27,-132l204 -658z"/>
  <path class="fil0" d="M6496 13365l88 115 -376 939c0,0 -52,-37 -126,-43 -74,-7 -110,0 -136,-13 -26,-13 -74,-75 -125,-68 -51,8 -140,46 -157,-23 -17,-70 68,-180 79,-205 12,-25 131,-98 238,-27 108,70 154,237 154,237 0,0 152,-328 221,-513 29,-95 140,-399 140,-399z"/>
  <path class="fil1" d="M17482 13202c-102,-230 -219,-692 -252,-823 -5,-19 -12,-124 -94,-46l-137 131 71 376c3,16 16,54 -10,86l-74 74c-10,12 -33,40 -45,67 -8,38 47,133 17,170l-84 100c-12,21 -33,48 -14,98l393 936c0,0 -77,131 -85,224 -7,94 28,254 56,227l176 -172c0,0 20,-331 135,-306 93,21 113,-45 151,-39 59,8 169,36 209,-45 40,-80 -54,-234 -96,-308 -42,-73 -178,-356 -215,-458 -36,-102 -102,-292 -102,-292z"/>
  <path class="fil0" d="M17559 13623l-203 -586 -187 -653 -110 98c0,0 50,311 131,581 80,270 166,550 166,550 0,0 22,-20 85,-20 68,0 118,30 118,30z"/>
  <path class="fil0" d="M17106 12967l-116 119c0,0 116,344 138,424 22,81 135,357 149,400 15,44 50,124 72,123 22,-1 43,-150 144,-174 101,-24 212,76 193,36l-92 -198c0,0 -84,-28 -166,30 -81,59 -92,114 -107,161 -14,48 -45,-72 -38,-130 8,-59 28,-133 28,-133l-205 -658z"/>
  <path class="fil0" d="M16997 13294l-88 115 376 940c0,0 52,-38 126,-44 74,-7 110,0 136,-13 26,-13 74,-75 125,-67 51,7 140,45 157,-24 17,-69 -68,-179 -80,-205 -11,-25 -130,-98 -237,-27 -108,71 -154,238 -154,238 0,0 -153,-329 -221,-514 -29,-95 -140,-399 -140,-399z"/>
  <path class="fil0" d="M17920 16696c-255,-8 -489,217 -570,283 -80,66 -226,321 -43,402 182,80 214,-92 265,-151 51,-58 178,-282 531,-310 353,-27 394,183 431,183 36,0 32,-204 -161,-311 -202,-130 -453,-96 -453,-96z"/>
  <path class="fil0" d="M10916 17106c96,-2 113,3 201,4 4,0 -27,-96 -30,-191 -4,-160 95,-353 116,-367 45,-31 -174,-1385 -167,-1307 3,25 -82,-378 -59,-518 35,-207 33,-323 42,-409 33,-341 -13,-973 77,-1083 95,-115 -197,-905 -235,-1030 -68,-222 -500,-802 -513,-851 -40,-155 -184,-302 -268,-456 -309,-563 -426,-1102 -469,-1162 -19,-25 -156,11 -314,-321 -85,-177 -162,-318 -177,-372 -89,-324 1,-487 193,-308 9,7 48,59 89,107 41,48 68,109 121,154 13,11 8,-11 16,-23 12,-18 18,-40 38,-28 69,42 163,187 170,205 34,91 90,245 117,356 9,35 -6,65 -19,99 -10,26 51,80 79,138 119,249 249,393 338,532 47,74 159,147 192,239 33,91 -8,196 66,242 19,12 126,62 241,179 77,78 135,187 219,288 59,69 144,132 202,187 76,71 122,181 182,212 73,38 41,-64 63,-143 27,-100 95,-191 87,-208 -70,-131 -150,-493 -121,-722 48,-395 471,-310 634,-207 188,120 180,505 69,705 -112,203 -102,306 -79,353 17,36 62,245 93,191 63,-111 222,-280 359,-317 57,-16 65,-109 97,-158 55,-82 119,-133 163,-176 151,-152 255,-385 410,-545 224,-232 419,-471 451,-573 14,-45 68,-99 47,-171 -12,-39 20,-289 92,-354 75,-66 143,-354 262,-264 57,44 119,-80 189,-144 70,-63 147,-40 183,36 50,106 -10,407 -215,686 -143,195 -306,140 -328,276 -96,608 -756,1303 -1049,1807 -256,442 -306,784 -355,1116 -43,293 -99,580 -109,923 -8,282 48,595 68,768 23,197 -44,453 -51,669 -10,338 -222,1023 -214,1168 8,133 67,275 75,446 6,133 -98,327 -16,339 177,-32 489,-37 644,5l140 94 172 183c-9,271 3,917 12,1215 13,440 -1,576 0,812 0,23 -7,80 -24,82 -375,33 -316,7 -747,18 -138,4 -330,-20 -476,35 -57,21 -104,127 -234,103 -50,-9 -19,-40 -23,-34 -12,15 -34,-1 -106,-16 -40,-8 -77,-45 -166,-74 -40,-14 -91,-31 -204,-33 -339,-5 -892,-18 -929,-54 -44,-43 -40,-184 -32,-257 55,-489 6,-1240 -2,-1489 -2,-74 -3,-200 -3,-265 -1,-156 123,-182 228,-294 89,-95 518,-83 497,-48z"/>
  <path class="fil5" d="M12158 17164c0,0 268,-85 484,-53 215,32 323,181 323,181l32 1482 4 -1448 31 36 29 1311 12 -1263 30 42 18 2051 12 13 1 -1 15 -2068c0,0 -184,-328 -474,-367 -289,-39 -472,31 -507,42l-10 42zm972 2355l-1144 52c0,0 -59,-8 -127,47 -42,34 -42,57 -76,78 -18,10 -41,16 -100,18 -158,5 -204,-114 -264,-128 -60,-13 -499,-28 -613,-41 -113,-14 -566,-63 -566,-63l-47 -15 -23 -2109c0,-9 182,-179 290,-240 107,-61 176,-72 597,-40l7 39c0,0 -383,-35 -538,20 -155,55 -185,133 -184,99l-4 288 -12 171 -7 -408 -53 39 1 421 -19 212 -15 -617 -20 46 20 2050 40 20c0,0 610,40 700,40 90,0 409,14 453,27 25,7 63,29 125,69 34,21 85,43 118,42 40,-3 86,-9 119,-32 33,-23 59,-50 89,-64 60,-29 213,-21 288,-22l674 -7 296 -8 -5 16zm-2545 -367l-102 23 -24 -17c0,0 -30,-433 -27,-632 4,-200 -22,-617 -22,-617 0,0 -1,536 2,735 3,200 5,532 5,532 0,0 14,25 39,26 20,-6 129,-50 129,-50zm773 13c221,126 261,217 315,214 55,-4 316,-217 560,-268 245,-51 513,61 513,61 0,0 -323,-81 -503,-31 -179,51 -515,316 -566,312 -51,-3 -336,-285 -489,-322 -113,-27 -283,-54 -400,-20 173,-58 349,-72 570,54zm-367 178c0,0 133,-6 199,13 66,19 163,72 163,72 0,0 -107,-41 -188,-59 -85,-9 -174,-26 -174,-26zm77 -57c0,0 86,-4 128,8 43,12 135,65 135,65 0,0 -78,-33 -137,-49 -61,-10 -126,-24 -126,-24zm-114 -97c0,0 125,-10 211,14 85,24 208,100 208,100 0,0 -116,-55 -223,-84 -101,-18 -196,-30 -196,-30zm-603 -816l19 110 1 614 -14 96 -6 -820zm-51 171l9 539 -16 -80 7 -459z"/>
  <path class="fil5" d="M11803 16238c0,0 -40,96 -6,147 33,50 86,37 100,28 14,-9 30,-17 25,-5 -5,12 -25,55 -76,47 -51,-7 -90,-37 -90,-98 -6,-60 47,-119 47,-119z"/>
  <path class="fil5" d="M12083 13162c0,0 0,-164 -59,-231 -59,-66 -167,-115 -218,-107 -51,9 -60,74 -34,83 26,8 54,-7 141,44 87,52 157,185 157,185l13 26zm-734 57c0,0 -11,-181 50,-258 61,-76 176,-137 232,-131 57,7 72,77 44,88 -28,12 -61,-4 -153,59 -92,62 -161,212 -161,212l-12 30zm356 -2525l-5 52 -18 20c0,0 -28,-1 -33,-3 -6,-2 -40,-18 -40,-18l-2 -15c0,0 37,-3 43,-10 6,-7 16,-21 13,-43 -3,-22 -43,-33 -43,-34l-3 -9 59 9c0,0 20,5 25,12 7,8 4,37 4,39zm122 -3l3 188c0,0 7,34 3,50 -4,16 -39,20 -42,29l-5 18c0,0 43,-7 57,-2 14,5 38,-14 41,-32 3,-17 0,-121 0,-121 0,0 0,-33 8,-44 8,-11 31,-30 31,-30l30 7 44 -5c0,0 5,-8 9,-22 5,-14 -25,-8 -41,-4 -16,3 -48,-4 -57,-29 -9,-25 7,-49 7,-49 0,0 65,-9 45,-19 -21,-11 -104,3 -115,18 -15,14 -18,47 -18,47zm-138 404c0,0 20,-25 32,-30 13,-5 41,-2 41,-2 0,0 40,9 52,9 12,0 43,-16 46,0 4,16 -17,23 -30,23 -12,0 -53,-3 -53,-3 0,0 -27,-11 -40,-11 -12,0 -48,14 -48,14zm-558 920c0,0 -71,-170 -163,-239 -91,-69 -159,-79 -160,-32 -1,48 60,49 109,66 49,17 92,42 132,90 25,37 82,115 82,115zm1128 -47c0,0 78,-174 191,-271 113,-97 169,-98 175,-48 6,51 -45,63 -102,84 -57,20 -105,77 -164,129 -31,35 -100,106 -100,106zm-486 -853c2,0 4,4 4,9 0,4 -2,8 -4,8 -3,0 -5,-4 -5,-8 0,-5 2,-9 5,-9z"/>
  <polygon class="fil0" points="10336,9674 10135,9986 10097,9992 10033,9912 10031,9884 10225,9589 "/>
  <polygon class="fil0" points="10891,9969 10639,10803 10747,10888 11030,10016 "/>
  <path class="fil0" d="M12441 10011l274 896c19,-26 72,-41 92,-67 12,-15 -8,-42 -4,-60l-258 -805 -104 36z"/>
  <path class="fil0" d="M13103 9672l238 393 33 8 72 -114 -242 -364c-32,26 -67,49 -101,77z"/>
  <path class="fil0" d="M13665 9107l83 63 30 -24c25,-20 34,-31 46,-39l18 -34 -17 -23 -78 -63c-24,35 -54,76 -82,120z"/>
  <path class="fil5" d="M9284 8714c-35,-27 -110,-61 -151,-38 -42,25 -47,60 -37,128l19 244 97 215 67 105 68 68 62 179 37 31 117 37 31 49 197 419 351 808 327 487 129 137 266 603c0,0 55,172 179,203 123,31 355,31 355,31 0,0 -371,-1 -362,105 10,105 284,105 284,105 0,0 -294,43 -265,141 28,99 216,87 216,87 0,0 -122,59 -124,117 -1,58 75,118 87,142 12,23 -99,61 -87,141 13,81 118,266 118,266l0 43c0,0 -98,-135 -118,-80 -19,54 13,184 13,184l-6 74c0,0 -44,56 -50,136 -6,80 -88,660 -82,949 6,288 -4,173 -4,173l191 993c0,0 -12,86 19,80 30,-6 86,-56 86,-56l43 -12c0,0 -56,86 -56,136 0,49 7,135 7,135l61 56c0,0 -61,43 -55,86 6,43 31,105 31,105l-44 -19 -36 37c0,0 -19,-37 -19,-80 0,-43 -22,-75 -22,-75 0,0 -77,322 -89,507 -12,185 136,635 185,758 49,123 142,546 142,546 0,0 -40,60 -34,99 7,38 21,120 21,175 0,56 -92,302 -92,364 0,62 74,240 74,240 0,0 71,63 102,63 31,1 52,61 83,67 31,6 43,-50 43,-50l0 -4278c0,0 -6,-68 -25,-117 -18,-50 -89,-73 -107,-117l-51 -124 -138 -172c0,0 -73,-93 31,-31 105,61 174,133 187,168 12,36 67,80 78,80l111 -2c0,0 63,-106 133,-163 69,-57 125,-125 169,-114 45,11 -38,46 -63,77 -24,31 -164,186 -202,275 -37,89 -80,93 -80,131 0,37 -6,103 -6,103l-6 4284c0,0 -11,58 31,56 41,-2 23,-42 68,-49 44,-8 56,-49 87,-56 31,-6 63,-40 79,-92 16,-53 30,-78 47,-139 17,-61 21,-108 21,-108 0,0 -80,-321 -80,-364 0,-43 6,-74 18,-123 12,-49 -44,-130 -43,-203 1,-74 212,-960 223,-1064 11,-105 8,-236 -21,-297 -28,-61 -36,-70 -36,-70l-60 37c0,0 11,-37 23,-92 13,-56 7,-99 7,-99l-37 -6c0,0 37,-216 37,-271 0,-56 -57,-307 -57,-307 0,0 57,89 98,59 42,-30 210,-691 210,-691 0,0 38,-590 38,-670 0,-81 -36,-188 -47,-272 -11,-83 -27,-160 -14,-197 12,-37 10,-97 -3,-134 -12,-38 -40,-121 -40,-121l3 -260c0,0 37,-37 40,-63 3,-27 6,-57 6,-57l-37 -25c0,0 24,-56 46,-145 21,-88 -20,-230 -20,-230l66 73c9,10 36,-99 30,-165 -6,-65 -95,-96 -95,-96 0,0 112,-33 113,-101 2,-68 -148,-80 -148,-80 0,0 162,0 162,-94 0,-95 -217,-107 -217,-107 0,0 191,3 192,-92 2,-94 -225,-97 -217,-98l253 -24 315 -543c0,0 46,-50 51,-79 6,-30 -3,-82 -3,-82l440 -523 55 -80 339 -696 150 -332 62 -143c0,0 40,-47 76,-60 36,-13 118,-63 137,-72 20,-10 74,-64 89,-97 14,-32 46,-94 59,-114 13,-19 59,-82 59,-82l53 -72 43 -105 27 -67 4 -131 -31 -78 -7 -64 -18 -11c0,0 -28,21 -48,14 -19,-6 -16,-37 -16,-37l-27 -8 -25 10 -152 172 -55 94 -49 63 -12 75 -23 52 3 75 -32 -65 38 -68 7 -79 57 -74c0,0 14,-44 -3,-73 -18,-29 -47,-12 -47,-12l-35 52 -83 71 -62 144 -93 175 -5 148 73 101 -4 29 -69 -6 -87 145 -204 285 -267 297 -232 390 -191 143 -163 273c0,0 -157,52 -186,81 -29,29 -175,227 -232,316 -58,88 -119,124 -159,125 -39,0 -119,17 -119,17 0,0 -15,74 -107,93 -92,18 -160,-64 -160,-64l91 8 42 -12 24 -10 80 -110c0,0 184,-9 210,-26 25,-18 67,-90 67,-90l-85 -253 -70 12c0,0 -81,46 -121,40 -41,-5 -110,-5 -110,-5 0,0 78,-4 128,-12 51,-7 81,-40 107,-71l92 -111c0,0 61,-137 67,-166 6,-29 17,-116 17,-116l-40 -24 88 -129 -4 -229 -142 -115c0,0 46,-43 11,-72 -35,-29 -180,-76 -180,-76l-110 -17 -209 75 29 29 -11 48 29 -3 -128 129 -15 82 9 104 -3 119 49 61 -29 9 24 159 17 111 125 143 112 51c0,0 -70,-7 -112,-21 -43,-14 -78,-34 -78,-34l-24 41c0,0 -46,127 -52,168 -6,41 -6,52 -6,52l59 45 -12 19 -145 18c0,0 -41,-85 -70,-138 -29,-53 -302,-279 -302,-279 0,0 -93,-112 -110,-147 -18,-34 -99,-150 -99,-150l-271 -201 -62 -217 -259 -353 -139 -239 -180 -279 -21 -29 32 -66 -51 -227 -53 -139 -51 -84c-25,-41 -72,-51 -91,-99 -19,-47 -26,-60 -60,-50 -33,9 -12,92 -12,92l48 83 6 23 -6 19 3 46 43 70 4 21c0,0 -24,31 -30,61 -7,30 -14,135 -14,135 0,0 -10,-67 -10,-104 -1,-37 19,-93 19,-93l-32 -73 -6 -40 0 -46 -41 -70 -27 -92 -111 -159 -126 -137 6 2 -92 -52c-55,-24 -88,32 -105,86 14,70 -3,147 29,211 19,39 -25,92 12,127l59 124 25 105 12 15 -271 226 -40 4 0 78 329 -267c8,-7 65,55 65,71l3 48 -361 289 -37 -8 0 90 393 -310 46 7 9 40 71 93 155 66 193 474 -632 1013 158 136 578 -885 223 555 148 145 148 265c0,0 12,31 1,67l-358 1142 204 81 321 -1043 44 83c24,45 45,175 95,324 51,149 174,377 174,377 0,0 6,332 6,406 0,74 92,320 99,363 6,43 50,162 51,309 2,146 -24,555 -24,555 0,0 -89,628 -52,930 37,302 168,1048 167,1095 0,47 -7,97 -7,147 0,49 19,158 19,158 0,0 -56,197 -62,419 -6,222 62,432 86,506 25,74 235,764 235,807 0,43 -25,130 -19,173 6,43 21,102 7,189 -15,88 -81,272 -81,384 0,113 43,130 62,160 18,31 59,61 59,61l97 60c3,1 71,80 185,82 114,2 272,-196 272,-196l90 -229c10,-26 -25,-252 -50,-339 -24,-86 -24,-172 -6,-221 19,-50 27,-86 0,-161 -27,-75 -43,-98 -43,-98 0,0 136,-611 203,-931 68,-321 5,-541 5,-541l-40 -205c0,0 9,-98 22,-136 13,-38 15,-221 15,-221 0,0 145,-435 213,-774 68,-339 36,-884 34,-961 -2,-77 -88,-239 -88,-239 0,0 18,-542 43,-647 25,-105 125,-537 137,-600 13,-63 19,-380 19,-380l54 -111 271 -561 56 -82 339 1080 190 -72 -370 -1224 294 -361 86 -198 128 -344 542 817 159 -131 -587 -950c0,0 33,-72 73,-166 40,-94 84,-195 95,-220 20,-43 224,-144 224,-144l51 -73 45 -58 40 6 347 293 -1 -87 -26 -1 -304 -252 -4 -42 23 -31 40 -46 272 223 0 -81 -15 6 -205 -174 2 -66 33 -85c17,-31 56,-134 57,-188 2,-54 -26,-110 -39,-136 -13,-26 -16,-45 -16,-68 0,-23 -49,-38 -75,-48 -26,-9 -65,2 -65,2l-44 27 -16 19 1 -1 -143 153c-29,31 -17,-38 -68,-42 -51,-3 -80,44 -80,44l-102 -89 -28 45 73 60 18 24 -21 34 -74 62 -78 -60 -30 41 81 69c0,0 -9,87 -32,116 -24,29 -72,118 -72,118l15 261 -133 190 -36 2 -223 -336 -29 25 237 364 -72 116 -33 -9 -239 -392 -33 22 244 410 2 38 -242 300 -212 316 -24 -16 -250 -784 -45 20 267 801 -2 40c0,15 -17,38 -47,55l-38 21 -282 -883 -57 18 278 881 0 35 -89 93 -157 215 -127 81 -192 192 -85 -253 70 -113 117 -508 6 -216c0,0 -79,-152 -108,-181 -29,-29 -250,-70 -296,-76 -46,-5 -203,18 -279,29 -75,12 -104,70 -104,70l-116 302 110 505c0,0 31,151 35,180 4,28 -6,87 -6,87l-78 218 -79 -113 -151 -128 -151 -118 -97 -203 -94 -91 3 -40 262 -854 -25 -13 -280 866 -115 -77 251 -831 -36 -15 -229 777 -17 26 -20 1 -79 -57 -46 -222 -293 -397 -11 -14 0 -50 203 -319 -27 -22 -199 310 -39 0 -17 -21 -46 -64 2 -32 185 -282 -26 -24 -176 273 -29 1 -61 -81 -56 -196 6 -8 -45 -219c0,0 -52,-121 -64,-164l-5 -19 23 -25 -24 -36 -9 6c-23,16 -24,-4 -39,-19l-44 -45 -11 -31 28 -27 -22 -39 -23 18 -17 10c0,0 -5,-20 -47,-27 -41,-7 -57,53 -69,37l-126 -167 -69 -83 -30 -13z"/>
  <path class="fil0" d="M14100 8182l-34 132 454 157 36 -14 0 -117 -456 -158zm121 1388l310 250 30 12 -1 -159 -274 -220c-28,32 -60,62 -65,117zm-554 762l-72 160 523 804 95 -85 -546 -879zm-729 1288l323 1060 111 -50 -340 -1124c-48,5 -82,43 -94,114zm-2531 -82l-327 1096 130 46 311 -995c-47,-34 -84,-109 -114,-147zm-612 -1258l-609 949 92 81 575 -890 -58 -140zm-910 -1966l485 -145c11,51 8,52 30,121l-517 162 2 -138zm339 1073l-342 277 0 80 44 6 347 -279c-2,-57 -28,-63 -49,-84z"/>
 </g>
</svg>
